# xmcd CD database file
#
# Track frame offsets:
#	183
#	12943
#	26478
#	39388
#	52483
#	65638
#	79620
#	92770
#	106185
#	119993
#	133003
#	145335
#	159670
#	175005
#	187773
#	203090
#	214573
#	227138
#	238860
#	251250
#	263988
#	276925
#	290133
#	303543
#
# Disc length: 4220 seconds
#
# Revision: 1
# Processed by: cddbd v1.5.1PL0 Copyright (c) Steve Scherf et al.
# Submitted via: CDex 1.50Beta7
#
DISCID=65107a18
DTITLE=Jelly Roll MORTON - Complete Edition Volume 2 - 1924-1926
DYEAR=1926
DGENRE=Jazz
TTITLE0=Frog-I-More Rag (JRM, Chicago, April/May 1924)
TTITLE1=London Blues (JRM, Chicago, April/May 1924)
TTITLE2=Tia Juana (JRM, Richmond, 9 June 1924)
TTITLE3=Shreveport Stomps (JRM, Richmond, 9 June 1924)
TTITLE4=Mamamita (JRM, Richmond, 9 June 1924)
TTITLE5=Big Foot Ham (JRM, Richmond, 9 June 1924)
TTITLE6=Jelly Roll Blues (JRM, Richmond, 9 June 1924)
TTITLE7=Bucktown Blues (JRM, Richmond, 9 June 1924)
TTITLE8=Tom Cat Blues (JRM, Richmond, 9 June 1924)
TTITLE9=Stratford Hunch (JRM, Richmond, 9 June 1924)
TTITLE10=Perfect Rag (JRM, Richmond, 9 June 1924)
TTITLE11=Fish Tail Blues (JRM's Kings Of Jazz, Chicago, Sept. 1924)
TTITLE12=High Society (JRM's Kings Of Jazz, Chicago, Sept. 1924)
TTITLE13=Weary Blues (JRM's Kings Of Jazz, Chicago, Sept. 1924)
TTITLE14=Tiger Rag (JRM's Kings Of Jazz, Chicago, Sept. 1924)
TTITLE15=King Porter Stomp (King Oliver and JRM, Chicago, Dec. 1924)
TTITLE16=Tom Cat Blues (King Oliver and JRM, Chicago, Dec. 1924)
TTITLE17=My Gal (JRM and His Jazz Trio, Chicago, May 1925)
TTITLE18=Wolverine Blues (Voltaire De Faut and JRM, Chicago, May 1925)
TTITLE19=Mr. Jelly Lord (JRM's Incomparables, Richmond, 24 Feb. 1926)
TTITLE20=The Pearls (JRM, Chicago, 20 Apr. 1926)
TTITLE21=Sweetheart O'Mine (JRM, Chicago, 20 Apr. 1926)
TTITLE22=Fat Meat And Greens (JRM, Chicago, 20 Apr. 1926)
TTITLE23=King Porter Stomp (JRM, Chicago, 20 Apr. 1926)
EXTD=YEAR: 1926
EXTT0=
EXTT1=
EXTT2=
EXTT3=
EXTT4=
EXTT5=
EXTT6=
EXTT7=
EXTT8=
EXTT9=
EXTT10=
EXTT11=
EXTT12=
EXTT13=
EXTT14=
EXTT15=
EXTT16=
EXTT17=
EXTT18=
EXTT19=
EXTT20=
EXTT21=
EXTT22=
EXTT23=
PLAYORDER=
